<svg width="154" height="192" viewBox="0 0 154 192" fill="none" xmlns="http://www.w3.org/2000/svg">
<g filter="url(#filter0_dd_509_109)">
<path d="M43.3174 130.826L43.3136 130.825C42.4639 130.473 41.9062 129.64 41.9062 128.717V23.2812C41.9062 22.0199 42.9261 21 44.1875 21H109.812C111.074 21 112.094 22.0198 112.094 23.2812C112.094 23.2813 112.094 23.2813 112.094 23.2814V128.718C112.094 129.64 111.536 130.473 110.687 130.825L110.681 130.827C109.859 131.173 108.864 130.995 108.2 130.33C105.466 127.597 101.034 127.597 98.3005 130.33C97.4093 131.222 95.9659 131.222 95.0748 130.33C92.3412 127.597 87.909 127.597 85.1755 130.33C84.2843 131.222 82.8409 131.222 81.9498 130.33C79.2162 127.597 74.784 127.597 72.0505 130.33C71.1593 131.222 69.7159 131.222 68.8248 130.33C66.0912 127.597 61.659 127.597 58.9255 130.33C58.0343 131.222 56.5909 131.222 55.6998 130.33C52.9663 127.597 48.5341 127.597 45.8005 130.33C45.1438 130.987 44.1589 131.178 43.3174 130.826Z" fill="url(#paint0_linear_509_109)" stroke="url(#paint1_linear_509_109)" stroke-width="2"/>
<path d="M77.0002 55.303C75.1929 55.303 73.719 53.8321 73.719 52.0217C73.719 50.2114 75.1929 48.7405 77.0002 48.7405C78.8076 48.7405 80.2815 50.2114 80.2815 52.0217C80.2815 53.8354 81.7491 55.303 83.5627 55.303C85.3764 55.303 86.844 53.8354 86.844 52.0217C86.844 47.7495 84.093 44.1415 80.2815 42.7824V38.8967C80.2815 37.0831 78.8139 35.6155 77.0002 35.6155C75.1866 35.6155 73.719 37.0831 73.719 38.8967V42.7824C69.9075 44.1415 67.1565 47.7495 67.1565 52.0217C67.1565 57.4498 71.5722 61.8655 77.0002 61.8655C78.8076 61.8655 80.2815 63.3364 80.2815 65.1467C80.2815 66.9571 78.8076 68.428 77.0002 68.428C75.1929 68.428 73.719 66.9571 73.719 65.1467C73.719 63.3331 72.2514 61.8655 70.4377 61.8655C68.6241 61.8655 67.1565 63.3331 67.1565 65.1467C67.1565 69.4189 69.9075 73.027 73.719 74.3861V78.2717C73.719 80.0854 75.1866 81.553 77.0002 81.553C78.8139 81.553 80.2815 80.0854 80.2815 78.2717V74.3861C84.093 73.0272 86.844 69.4189 86.844 65.1467C86.844 59.7187 82.4285 55.303 77.0002 55.303ZM77.0002 88.1155H57.3127C55.4991 88.1155 54.0315 89.5831 54.0315 91.3967C54.0315 93.2104 55.4991 94.678 57.3127 94.678H77.0002C78.8139 94.678 80.2815 93.2104 80.2815 91.3967C80.2815 89.5831 78.8139 88.1155 77.0002 88.1155ZM77.0002 101.24H57.3127C55.4991 101.24 54.0315 102.708 54.0315 104.522C54.0315 106.335 55.4991 107.803 57.3127 107.803H77.0002C78.8139 107.803 80.2815 106.335 80.2815 104.522C80.2815 102.708 78.8139 101.24 77.0002 101.24ZM90.1252 94.678H96.6877C98.5014 94.678 99.969 93.2104 99.969 91.3967C99.969 89.5831 98.5014 88.1155 96.6877 88.1155H90.1252C88.3116 88.1155 86.844 89.5831 86.844 91.3967C86.844 93.2104 88.3116 94.678 90.1252 94.678ZM96.6877 101.24H90.1252C88.3116 101.24 86.844 102.708 86.844 104.522C86.844 106.335 88.3116 107.803 90.1252 107.803H96.6877C98.5014 107.803 99.969 106.335 99.969 104.522C99.969 102.708 98.5014 101.24 96.6877 101.24Z" fill="white"/>
</g>
<defs>
<filter id="filter0_dd_509_109" x="0.90625" y="0" width="152.188" height="192" filterUnits="userSpaceOnUse" color-interpolation-filters="sRGB">
<feFlood flood-opacity="0" result="BackgroundImageFix"/>
<feColorMatrix in="SourceAlpha" type="matrix" values="0 0 0 0 0 0 0 0 0 0 0 0 0 0 0 0 0 0 127 0" result="hardAlpha"/>
<feOffset dy="20"/>
<feGaussianBlur stdDeviation="20"/>
<feColorMatrix type="matrix" values="0 0 0 0 1 0 0 0 0 0.680498 0 0 0 0 0 0 0 0 0.29 0"/>
<feBlend mode="normal" in2="BackgroundImageFix" result="effect1_dropShadow_509_109"/>
<feColorMatrix in="SourceAlpha" type="matrix" values="0 0 0 0 0 0 0 0 0 0 0 0 0 0 0 0 0 0 127 0" result="hardAlpha"/>
<feOffset dy="5"/>
<feGaussianBlur stdDeviation="5"/>
<feColorMatrix type="matrix" values="0 0 0 0 1 0 0 0 0 0.680498 0 0 0 0 0 0 0 0 0.26 0"/>
<feBlend mode="normal" in2="effect1_dropShadow_509_109" result="effect2_dropShadow_509_109"/>
<feBlend mode="normal" in="SourceGraphic" in2="effect2_dropShadow_509_109" result="shape"/>
</filter>
<linearGradient id="paint0_linear_509_109" x1="77.0001" y1="-22.8026" x2="77.0001" y2="169.452" gradientUnits="userSpaceOnUse">
<stop offset="0.630208" stop-color="#FFAE00"/>
<stop offset="1" stop-color="#FFCD1E"/>
</linearGradient>
<linearGradient id="paint1_linear_509_109" x1="77.0001" y1="20" x2="77.0001" y2="132" gradientUnits="userSpaceOnUse">
<stop stop-color="#FF9F00"/>
<stop offset="1" stop-color="#FFB800"/>
</linearGradient>
</defs>
</svg>
